<svg width="24" height="25" viewBox="0 0 24 25" fill="none" xmlns="http://www.w3.org/2000/svg">
<g clip-path="url(#clip0_0_165)">
<path d="M23.8414 12.1158L18.387 6.66137C18.191 6.43258 17.8467 6.40591 17.6179 6.60189C17.3891 6.79782 17.3624 7.14216 17.5584 7.37095C17.5767 7.39228 17.5966 7.4122 17.6179 7.43043L22.1396 11.9576H0.545428C0.244214 11.9576 0 12.2019 0 12.5031C0 12.8044 0.244214 13.0485 0.545428 13.0485H22.1396L17.6179 17.5703C17.3891 17.7662 17.3624 18.1105 17.5584 18.3393C17.7544 18.5681 18.0987 18.5948 18.3275 18.3988C18.3488 18.3805 18.3687 18.3607 18.387 18.3393L23.8414 12.8849C24.0529 12.6722 24.0529 12.3286 23.8414 12.1158Z" fill="#B51819"/>
</g>
<defs>
<clipPath id="clip0_0_165">
<rect width="24" height="24" fill="white" transform="translate(0 0.5)"/>
</clipPath>
</defs>
</svg>
