<svg width="24" height="18" viewBox="0 0 24 18" fill="none" xmlns="http://www.w3.org/2000/svg">
<path d="M21.8906 0.880859H2.10938C0.943922 0.880859 0 1.83064 0 2.99023V15.6465C0 16.813 0.950859 17.7559 2.10938 17.7559H21.8906C23.0463 17.7559 24 16.817 24 15.6465V2.99023C24 1.8327 23.0598 0.880859 21.8906 0.880859ZM21.5952 2.28711C21.1642 2.71578 13.7476 10.0933 13.4916 10.3481C13.0931 10.7465 12.5634 10.9659 12 10.9659C11.4366 10.9659 10.9069 10.7465 10.5071 10.3468C10.3349 10.1754 3.00014 2.87933 2.40478 2.28711H21.5952ZM1.40625 15.3603V3.27734L7.48303 9.32211L1.40625 15.3603ZM2.40567 16.3496L8.48006 10.3138L9.51408 11.3424C10.1781 12.0065 11.061 12.3721 12 12.3721C12.939 12.3721 13.8219 12.0065 14.4846 11.3437L15.5199 10.3138L21.5943 16.3496H2.40567ZM22.5938 15.3603L16.517 9.32211L22.5938 3.27734V15.3603Z" fill="white"/>
</svg>
