<svg width="24" height="25" viewBox="0 0 24 25" fill="none" xmlns="http://www.w3.org/2000/svg">
<path d="M4.892 16.2719C7.25918 19.1016 10.1087 21.3295 13.3611 22.906C14.5994 23.4928 16.2554 24.1891 18.1005 24.3084C18.2148 24.3134 18.3242 24.3184 18.4386 24.3184C19.6769 24.3184 20.6715 23.8907 21.4821 23.0104C21.4871 23.0055 21.4971 22.9955 21.502 22.9856C21.7905 22.6375 22.1187 22.3242 22.4618 21.991C22.6956 21.7672 22.9343 21.5334 23.163 21.2947C24.2223 20.1907 24.2223 18.7883 23.1531 17.7191L20.1643 14.7303C19.657 14.2031 19.0503 13.9247 18.4138 13.9247C17.7772 13.9247 17.1655 14.2032 16.6433 14.7253L14.863 16.5057C14.6989 16.4112 14.5298 16.3266 14.3707 16.2471C14.1717 16.1476 13.9877 16.0531 13.8236 15.9487C12.2024 14.9193 10.7304 13.5765 9.323 11.8509C8.61185 10.9508 8.13444 10.1949 7.80124 9.42404C8.26871 9.00133 8.70634 8.55872 9.12905 8.12607C9.27824 7.9719 9.43241 7.81774 9.58657 7.66357C10.1237 7.12648 10.4121 6.50485 10.4121 5.87327C10.4121 5.24169 10.1286 4.62006 9.58657 4.08297L8.1046 2.601C7.93054 2.42694 7.76643 2.25785 7.59735 2.0838C7.26912 1.74563 6.92598 1.39751 6.58781 1.08421C6.07559 0.581932 5.47385 0.318359 4.8373 0.318359C4.20572 0.318359 3.599 0.581932 3.06689 1.08918L1.20696 2.94911C0.530624 3.62545 0.147698 4.446 0.0681294 5.39586C-0.0263587 6.58442 0.192456 7.84758 0.759385 9.37431C1.62967 11.7365 2.94256 13.9296 4.892 16.2719ZM1.28156 5.50029C1.34123 4.83887 1.59486 4.28686 2.07227 3.80945L3.92225 1.95947C4.21069 1.68098 4.52897 1.53676 4.8373 1.53676C5.14065 1.53676 5.44898 1.68098 5.73245 1.96942C6.06564 2.27775 6.37895 2.601 6.71711 2.94414C6.8862 3.11819 7.06026 3.29225 7.23431 3.47128L8.71628 4.95325C9.02462 5.26158 9.18375 5.57489 9.18375 5.88322C9.18375 6.19155 9.02462 6.50485 8.71628 6.81318C8.56212 6.96734 8.40796 7.12648 8.25379 7.28065C7.7913 7.74811 7.35864 8.19072 6.88123 8.61343C6.87128 8.62337 6.86631 8.62835 6.85636 8.63829C6.4436 9.05106 6.50825 9.44393 6.60771 9.74231C6.61268 9.75723 6.61765 9.76718 6.62263 9.7821C7.00555 10.7021 7.53767 11.5774 8.36817 12.6217C9.86009 14.4617 11.4316 15.889 13.1622 16.9881C13.376 17.1273 13.6048 17.2367 13.8186 17.3461C14.0176 17.4456 14.2016 17.5401 14.3657 17.6445C14.3856 17.6545 14.4005 17.6644 14.4204 17.6743C14.5845 17.7589 14.7436 17.7987 14.9028 17.7987C15.3006 17.7987 15.5592 17.545 15.6438 17.4605L17.5037 15.6006C17.7921 15.3121 18.1054 15.158 18.4138 15.158C18.7917 15.158 19.1 15.3917 19.294 15.6006L22.2927 18.5944C22.8895 19.1911 22.8845 19.8376 22.2778 20.4692C22.069 20.693 21.8501 20.9068 21.6164 21.1306C21.2683 21.4688 20.9053 21.8169 20.577 22.2098C20.0051 22.8264 19.3238 23.1149 18.4436 23.1149C18.3591 23.1149 18.2695 23.1099 18.185 23.1049C16.5538 23.0005 15.037 22.3639 13.8982 21.8219C10.805 20.325 8.08968 18.2015 5.83688 15.5061C3.98193 13.2732 2.73369 11.1944 1.90816 8.96651C1.39594 7.59892 1.20199 6.49988 1.28156 5.50029Z" fill="white"/>
</svg>
