<svg width="18" height="18" viewBox="0 0 18 18" fill="none" xmlns="http://www.w3.org/2000/svg">
<path d="M17.4508 16.7426L13.5443 12.8366C14.7456 11.4745 15.4072 9.72014 15.4043 7.90405C15.4043 5.90055 14.6243 4.01705 13.2078 2.60055C11.7913 1.18405 9.9078 0.404053 7.9048 0.404053C5.9018 0.404053 4.0178 1.18405 2.6008 2.60005C1.1838 4.01605 0.404297 5.90005 0.404297 7.90355C0.404297 9.90705 1.1843 11.7901 2.6008 13.2066C4.0173 14.6231 5.9008 15.4036 7.9043 15.4036C9.7393 15.4036 11.4693 14.7421 12.8368 13.5431L16.7428 17.4491C16.7891 17.4956 16.8442 17.5326 16.9049 17.5579C16.9655 17.5831 17.0306 17.5961 17.0963 17.5961C17.162 17.5961 17.2271 17.5831 17.2877 17.5579C17.3484 17.5326 17.4035 17.4956 17.4498 17.4491C17.5435 17.3553 17.5962 17.2281 17.5962 17.0956C17.5962 16.963 17.5435 16.8358 17.4498 16.7421L17.4508 16.7426ZM3.3078 12.5001C2.0803 11.2721 1.4043 9.64005 1.4043 7.90405C1.4043 6.16805 2.0803 4.53555 3.3078 3.30755C4.5358 2.08005 6.1678 1.40405 7.9043 1.40405C9.6408 1.40405 11.2728 2.08005 12.5008 3.30755C13.7283 4.53555 14.4048 6.16755 14.4048 7.90405C14.4048 9.64055 13.7283 11.2721 12.5008 12.5001C11.2728 13.7276 9.6408 14.4041 7.9048 14.4041C6.1688 14.4041 4.5353 13.7276 3.3078 12.5001Z" fill="white"/>
</svg>
