<svg width="18" height="25" viewBox="0 0 18 25" fill="none" xmlns="http://www.w3.org/2000/svg">
<path d="M8.41495 24.0052C8.54536 24.2008 8.76492 24.3184 9 24.3184C9.23508 24.3184 9.45464 24.2009 9.58505 24.0052C11.2491 21.5093 13.7 18.4267 15.408 15.2917C16.7736 12.785 17.4375 10.6471 17.4375 8.75586C17.4375 4.10342 13.6524 0.318359 9 0.318359C4.34756 0.318359 0.5625 4.10342 0.5625 8.75586C0.5625 10.6471 1.22639 12.785 2.59205 15.2917C4.29872 18.4243 6.75436 21.5144 8.41495 24.0052ZM9 1.72461C12.877 1.72461 16.0312 4.87883 16.0312 8.75586C16.0312 10.406 15.4234 12.3239 14.1731 14.6189C12.7009 17.3212 10.6 20.0624 9 22.3669C7.4002 20.0628 5.29922 17.3214 3.82692 14.6189C2.57658 12.3239 1.96875 10.406 1.96875 8.75586C1.96875 4.87883 5.12297 1.72461 9 1.72461Z" fill="white"/>
<path d="M9 12.9746C11.3262 12.9746 13.2188 11.0821 13.2188 8.75586C13.2188 6.42964 11.3262 4.53711 9 4.53711C6.67378 4.53711 4.78125 6.42964 4.78125 8.75586C4.78125 11.0821 6.67378 12.9746 9 12.9746ZM9 5.94336C10.5508 5.94336 11.8125 7.20505 11.8125 8.75586C11.8125 10.3067 10.5508 11.5684 9 11.5684C7.44919 11.5684 6.1875 10.3067 6.1875 8.75586C6.1875 7.20505 7.44919 5.94336 9 5.94336Z" fill="white"/>
</svg>
