<svg width="35" height="34" viewBox="0 0 35 34" fill="none" xmlns="http://www.w3.org/2000/svg">
<path d="M35 16.6057C35.0004 15.2236 34.4769 13.8928 33.535 12.8814C33.2171 12.5602 32.9759 12.1713 32.8294 11.7438C32.683 11.3163 32.6351 10.8612 32.6894 10.4126C32.6924 10.3881 32.6938 10.3635 32.6937 10.3389C32.6904 8.99094 32.1917 7.69127 31.2927 6.687C30.3936 5.68272 29.1568 5.04389 27.8175 4.89198C27.6504 3.5626 27.0191 2.33496 26.035 1.42573C25.4862 0.920453 24.8386 0.534512 24.1331 0.292302C23.4275 0.0500913 22.6794 -0.0431218 21.936 0.0185541C21.1926 0.08023 20.4701 0.295454 19.8141 0.650622C19.1582 1.00579 18.583 1.49318 18.125 2.08198V10.9807H20.8262C21.3234 10.9802 21.8 10.7825 22.1515 10.431C22.503 10.0795 22.7007 9.60286 22.7012 9.10573V7.49323C22.2842 7.34579 21.9328 7.05569 21.709 6.67418C21.4852 6.29267 21.4035 5.84433 21.4782 5.4084C21.553 4.97246 21.7795 4.577 22.1177 4.29191C22.4559 4.00682 22.8839 3.85046 23.3262 3.85046C23.7685 3.85046 24.1966 4.00682 24.5348 4.29191C24.8729 4.577 25.0994 4.97246 25.1742 5.4084C25.249 5.84433 25.1673 6.29267 24.9435 6.67418C24.7197 7.05569 24.3683 7.34579 23.9512 7.49323V9.10573C23.9503 9.93423 23.6207 10.7285 23.0349 11.3143C22.449 11.9002 21.6547 12.2297 20.8262 12.2307H18.125V14.3532H25.1975C25.6946 14.3527 26.1712 14.155 26.5228 13.8035C26.8743 13.452 27.072 12.9754 27.0725 12.4782V10.8657C26.6555 10.7183 26.304 10.4282 26.0802 10.0467C25.8564 9.66517 25.7747 9.21683 25.8495 8.78089C25.9243 8.34496 26.1508 7.9495 26.489 7.66441C26.8271 7.37932 27.2552 7.22296 27.6975 7.22296C28.1398 7.22296 28.5679 7.37932 28.906 7.66441C29.2442 7.9495 29.4707 8.34496 29.5455 8.78089C29.6203 9.21683 29.5386 9.66517 29.3148 10.0467C29.091 10.4282 28.7395 10.7183 28.3225 10.8657V12.4782C28.3215 13.3067 27.9919 14.101 27.4061 14.6868C26.8203 15.2727 26.026 15.6022 25.1975 15.6032H18.125V17.6082H25.1975C26.026 17.6092 26.8203 17.9388 27.4061 18.5246C27.9919 19.1105 28.3215 19.9047 28.3225 20.7332V22.3457C28.7395 22.4932 29.091 22.7833 29.3148 23.1648C29.5386 23.5463 29.6203 23.9946 29.5455 24.4306C29.4707 24.8665 29.2442 25.262 28.906 25.547C28.5679 25.8321 28.1398 25.9885 27.6975 25.9885C27.2552 25.9885 26.8271 25.8321 26.489 25.547C26.1508 25.262 25.9243 24.8665 25.8495 24.4306C25.7747 23.9946 25.8564 23.5463 26.0802 23.1648C26.304 22.7833 26.6555 22.4932 27.0725 22.3457V20.7332C27.072 20.2361 26.8743 19.7595 26.5228 19.408C26.1712 19.0564 25.6946 18.8587 25.1975 18.8582H18.125V20.9807H20.8262C21.6547 20.9817 22.449 21.3113 23.0349 21.8971C23.6207 22.483 23.9503 23.2772 23.9512 24.1057V25.7182C24.3683 25.8657 24.7197 26.1558 24.9435 26.5373C25.1673 26.9188 25.249 27.3671 25.1742 27.8031C25.0994 28.239 24.8729 28.6345 24.5348 28.9195C24.1966 29.2046 23.7685 29.361 23.3262 29.361C22.8839 29.361 22.4559 29.2046 22.1177 28.9195C21.7795 28.6345 21.553 28.239 21.4782 27.8031C21.4035 27.3671 21.4852 26.9188 21.709 26.5373C21.9328 26.1558 22.2842 25.8657 22.7012 25.7182V24.1057C22.7007 23.6086 22.503 23.132 22.1515 22.7805C21.8 22.4289 21.3234 22.2312 20.8262 22.2307H18.125V31.1289C18.5907 31.7297 19.1785 32.225 19.8497 32.5819C20.5209 32.9388 21.2602 33.1493 22.0187 33.1995C22.1333 33.2066 22.2475 33.2101 22.3612 33.2101C23.7513 33.2138 25.0899 32.6843 26.1012 31.7307C27.0528 30.8369 27.6559 29.6342 27.8031 28.337C29.1471 28.1847 30.3882 27.5434 31.29 26.5353C32.1918 25.5272 32.6915 24.2227 32.6937 22.8701C32.6935 22.8463 32.6921 22.8225 32.6894 22.7989C32.6355 22.3483 32.6843 21.8915 32.8322 21.4625C32.98 21.0335 33.2231 20.6436 33.5431 20.322C34.4809 19.3118 35.0014 17.9841 35 16.6057ZM12.9831 0.0119788C12.2521 -0.0367652 11.5188 0.0635855 10.8277 0.306937C10.1367 0.550288 9.5023 0.931562 8.96312 1.4276C8.3317 2.0104 7.8421 2.73004 7.53187 3.53135C7.80615 4.45221 8.32166 5.28298 9.02499 5.9376C9.54994 6.35995 10.1598 6.66407 10.813 6.8292C11.4662 6.99434 12.1474 7.0166 12.81 6.89448C12.9747 6.87508 13.1403 6.9219 13.2705 7.02464C13.4006 7.12737 13.4847 7.27761 13.5041 7.44229C13.5235 7.60697 13.4766 7.77262 13.3739 7.90278C13.2712 8.03294 13.1209 8.11696 12.9562 8.13635C12.6277 8.17576 12.2971 8.1958 11.9662 8.19635C10.5894 8.24004 9.24567 7.76896 8.19749 6.8751C7.59762 6.33744 7.11068 5.68584 6.76499 4.95823C5.5128 5.19843 4.38315 5.8667 3.56967 6.8485C2.75618 7.83029 2.30952 9.06446 2.30624 10.3395C2.36972 10.8014 2.32607 11.2718 2.17868 11.7142C2.03128 12.1566 1.7841 12.5591 1.45624 12.8907C0.518577 13.9031 -0.00161907 15.2326 3.78568e-06 16.6124C0.00162664 17.9923 0.524948 19.3206 1.46499 20.3307C1.79038 20.6614 2.03545 21.0624 2.18131 21.5028C2.32717 21.9432 2.36991 22.4112 2.30624 22.8707C2.30389 24.1334 2.73762 25.3581 3.53411 26.3378C4.3306 27.3175 5.44097 27.9921 6.67749 28.2476C6.95542 27.7724 7.30781 27.3449 7.72124 26.9814C8.97562 25.8901 10.7106 25.4914 12.8762 25.7926C13.0372 25.8192 13.1814 25.9076 13.2781 26.0391C13.3747 26.1706 13.4161 26.3346 13.3934 26.4962C13.3707 26.6577 13.2858 26.804 13.1567 26.9038C13.0276 27.0036 12.8646 27.0489 12.7025 27.0301C10.9137 26.7807 9.51812 27.0789 8.54874 27.9182C8.06895 28.3463 7.69498 28.8799 7.45624 29.477C7.74369 30.335 8.23855 31.1087 8.89687 31.7295C9.90881 32.6843 11.2487 33.2143 12.64 33.2101C13.4576 33.2083 14.264 33.0201 14.9979 32.6596C15.7318 32.2992 16.3738 31.7761 16.875 31.1301V14.9445C16.3585 15.0489 15.8331 15.1027 15.3062 15.1051C14.7404 15.1076 14.1765 15.037 13.6287 14.8951C13.2912 14.8864 10.9381 14.8639 10.1275 16.2589C10.0877 16.3325 10.0335 16.3975 9.96813 16.4498C9.90276 16.5021 9.82754 16.5408 9.74693 16.5635C9.66633 16.5862 9.58199 16.5924 9.49891 16.5819C9.41584 16.5713 9.33573 16.5442 9.26335 16.5021C9.19096 16.46 9.12777 16.4038 9.07754 16.3368C9.0273 16.2698 8.99104 16.1934 8.9709 16.1121C8.95077 16.0309 8.94717 15.9464 8.96033 15.8637C8.97349 15.781 9.00313 15.7017 9.04749 15.6307C9.34469 15.173 9.73138 14.7802 10.1843 14.4758C10.6373 14.1714 11.1471 13.9618 11.6831 13.8595C11.1072 13.3222 10.6793 12.6457 10.4406 11.8951C10.3877 11.7379 10.3995 11.5661 10.4733 11.4175C10.5471 11.269 10.6768 11.1558 10.8341 11.1029C10.9913 11.05 11.1631 11.0618 11.3116 11.1356C11.4602 11.2094 11.5734 11.3391 11.6262 11.4964C12.5887 14.362 15.7187 13.9332 16.875 13.6664V2.08198C16.4094 1.48151 15.8219 0.986599 15.151 0.629891C14.4801 0.273184 13.7413 0.0621688 12.9831 0.0119788Z" fill="#B51819"/>
</svg>
