<svg width="40" height="40" viewBox="0 0 40 40" fill="none" xmlns="http://www.w3.org/2000/svg">
<g clip-path="url(#clip0_0_213)">
<g clip-path="url(#clip1_0_213)">
<path d="M20.0004 40C31.0284 40 39.9992 31.0277 39.9992 19.9996C39.9992 8.97156 31.0284 0 20.0004 0C8.97234 0 0 8.97164 0 19.9996C0 31.0276 8.97234 40 20.0004 40ZM19.3559 3.25375C20.2783 3.21789 20.9441 3.89977 20.9732 4.76266L21.4543 18.5885L26.598 14.4795C27.2745 13.9389 28.258 14.0512 28.7956 14.7254C29.3348 15.4004 29.2248 16.384 28.5498 16.923L20.9748 22.9738C20.6978 23.1955 20.3536 23.3161 19.9989 23.3159C19.7774 23.3159 19.5545 23.2686 19.3452 23.1731C19.0818 23.0521 18.8573 22.8601 18.6968 22.6187C18.5364 22.3773 18.4462 22.096 18.4366 21.8062L17.8486 4.87102C17.818 4.0082 18.493 3.28352 19.3559 3.25375Z" fill="#B51819"/>
</g>
</g>
<defs>
<clipPath id="clip0_0_213">
<rect width="40" height="40" fill="white"/>
</clipPath>
<clipPath id="clip1_0_213">
<rect width="40" height="40" fill="white"/>
</clipPath>
</defs>
</svg>
