<svg width="40" height="41" viewBox="0 0 40 41" fill="none" xmlns="http://www.w3.org/2000/svg">
<g clip-path="url(#clip0_0_155)">
<path d="M31.6406 24.0938C27.1179 24.0938 23.4375 27.7741 23.4375 32.2969C23.4375 36.8196 27.1179 40.5 31.6406 40.5C36.1634 40.5 40 36.8196 40 32.2969C40 27.7741 36.1634 24.0938 31.6406 24.0938ZM33.9844 33.4688H31.6406C30.9929 33.4688 30.4688 32.9446 30.4688 32.2969V29.9531C30.4688 29.3054 30.9929 28.7812 31.6406 28.7812C32.2884 28.7812 32.8125 29.3054 32.8125 29.9531V31.125H33.9844C34.6321 31.125 35.1562 31.6491 35.1562 32.2969C35.1562 32.9446 34.6321 33.4688 33.9844 33.4688ZM4.6875 29.9531H2.34375C1.0493 29.9531 0 31.0024 0 32.2969C0 33.5912 1.0493 34.6406 2.34375 34.6406H4.6875C5.98195 34.6406 7.03125 33.5912 7.03125 32.2969C7.03125 31.0024 5.98195 29.9531 4.6875 29.9531ZM4.6875 18.2344H2.34375C1.0493 18.2344 0 19.2837 0 20.5781C0 21.8724 1.0493 22.9219 2.34375 22.9219H4.6875C5.98195 22.9219 7.03125 21.8724 7.03125 20.5781C7.03125 19.2837 5.98195 18.2344 4.6875 18.2344ZM4.6875 6.35938H2.34375C1.0493 6.35938 0 7.40867 0 8.70312C0 9.99742 1.0493 11.0469 2.34375 11.0469H4.6875C5.98195 11.0469 7.03125 9.99742 7.03125 8.70312C7.03125 7.40867 5.98195 6.35938 4.6875 6.35938Z" fill="#FF995E"/>
<path d="M31.6406 24.0938C27.1179 24.0938 23.4375 27.7741 23.4375 32.2969C23.4375 36.8196 27.1179 40.5 31.6406 40.5C36.1634 40.5 40 36.8196 40 32.2969C40 27.7741 36.1634 24.0938 31.6406 24.0938ZM33.9844 33.4688H31.6406C30.9929 33.4688 30.4688 32.9446 30.4688 32.2969V29.9531C30.4688 29.3054 30.9929 28.7812 31.6406 28.7812C32.2884 28.7812 32.8125 29.3054 32.8125 29.9531V31.125H33.9844C34.6321 31.125 35.1562 31.6491 35.1562 32.2969C35.1562 32.9446 34.6321 33.4688 33.9844 33.4688ZM4.6875 29.9531H2.34375C1.0493 29.9531 0 31.0024 0 32.2969C0 33.5912 1.0493 34.6406 2.34375 34.6406H4.6875C5.98195 34.6406 7.03125 33.5912 7.03125 32.2969C7.03125 31.0024 5.98195 29.9531 4.6875 29.9531ZM4.6875 18.2344H2.34375C1.0493 18.2344 0 19.2837 0 20.5781C0 21.8724 1.0493 22.9219 2.34375 22.9219H4.6875C5.98195 22.9219 7.03125 21.8724 7.03125 20.5781C7.03125 19.2837 5.98195 18.2344 4.6875 18.2344ZM4.6875 6.35938H2.34375C1.0493 6.35938 0 7.40867 0 8.70312C0 9.99742 1.0493 11.0469 2.34375 11.0469H4.6875C5.98195 11.0469 7.03125 9.99742 7.03125 8.70312C7.03125 7.40867 5.98195 6.35938 4.6875 6.35938Z" fill="#B51819"/>
<path d="M33.9844 0.5H8.20312C6.26453 0.5 4.6875 2.07703 4.6875 4.01562C7.27273 4.01562 9.375 6.11789 9.375 8.70312C9.375 11.2884 7.27273 13.3906 4.6875 13.3906V15.8906C7.27273 15.8906 9.375 17.9929 9.375 20.5781C9.375 23.1634 7.27273 25.2656 4.6875 25.2656V27.6094C7.27273 27.6094 9.375 29.7116 9.375 32.2969C9.375 34.8821 7.27273 36.9844 4.6875 36.9844C4.6875 38.923 6.26453 40.5 8.20312 40.5H25.0933C22.6755 38.5656 21.0938 35.6271 21.0938 32.2969C21.0938 26.481 25.8248 21.75 31.6406 21.75C33.808 21.75 35.9788 22.41 37.6562 23.5354V4.01562C37.6562 2.07703 35.923 0.5 33.9844 0.5ZM20.7505 26.0941L16.0629 30.7816C15.834 31.0105 15.5341 31.125 15.2344 31.125C14.9346 31.125 14.6347 31.0105 14.4059 30.7816L11.7325 28.1083C11.2748 27.6505 11.2748 26.9089 11.7325 26.4512C12.1902 25.9934 12.9319 25.9934 13.3896 26.4512L15.2344 28.296L19.0934 24.437C19.5511 23.9793 20.2927 23.9793 20.7505 24.437C21.2082 24.8948 21.2082 25.6364 20.7505 26.0941ZM20.7505 16.7191L16.063 21.4066C15.8341 21.6355 15.5342 21.75 15.2345 21.75C14.9347 21.75 14.6348 21.6355 14.4059 21.4066L11.7326 18.7333C11.2747 18.2755 11.2747 17.534 11.7325 17.0763C12.1902 16.6185 12.9319 16.6185 13.3896 17.0763L15.2344 18.921L19.0934 15.062C19.5511 14.6043 20.2927 14.6043 20.7505 15.062C21.2082 15.5198 21.2082 16.2614 20.7505 16.7191ZM20.7505 7.18789L16.063 11.8754C15.8341 12.1043 15.5342 12.2188 15.2345 12.2188C14.9347 12.2188 14.6348 12.1043 14.4059 11.8754L11.7326 9.20203C11.2747 8.7443 11.2747 8.00273 11.7325 7.545C12.1902 7.08727 12.9319 7.08727 13.3896 7.545L15.2344 9.38977L19.0934 5.53078C19.5511 5.07305 20.2927 5.07305 20.7505 5.53078C21.2082 5.98852 21.2082 6.73016 20.7505 7.18789ZM31.6406 19.4062H24.6094C23.9616 19.4062 23.4375 18.8821 23.4375 18.2344C23.4375 17.5866 23.9616 17.0625 24.6094 17.0625H31.6406C32.2884 17.0625 32.8125 17.5866 32.8125 18.2344C32.8125 18.8821 32.2884 19.4062 31.6406 19.4062ZM31.6406 9.875H24.6094C23.9616 9.875 23.4375 9.35086 23.4375 8.70312C23.4375 8.05539 23.9616 7.53125 24.6094 7.53125H31.6406C32.2884 7.53125 32.8125 8.05539 32.8125 8.70312C32.8125 9.35086 32.2884 9.875 31.6406 9.875Z" fill="#FF995E"/>
<path d="M33.9844 0.5H8.20312C6.26453 0.5 4.6875 2.07703 4.6875 4.01562C7.27273 4.01562 9.375 6.11789 9.375 8.70312C9.375 11.2884 7.27273 13.3906 4.6875 13.3906V15.8906C7.27273 15.8906 9.375 17.9929 9.375 20.5781C9.375 23.1634 7.27273 25.2656 4.6875 25.2656V27.6094C7.27273 27.6094 9.375 29.7116 9.375 32.2969C9.375 34.8821 7.27273 36.9844 4.6875 36.9844C4.6875 38.923 6.26453 40.5 8.20312 40.5H25.0933C22.6755 38.5656 21.0938 35.6271 21.0938 32.2969C21.0938 26.481 25.8248 21.75 31.6406 21.75C33.808 21.75 35.9788 22.41 37.6562 23.5354V4.01562C37.6562 2.07703 35.923 0.5 33.9844 0.5ZM20.7505 26.0941L16.0629 30.7816C15.834 31.0105 15.5341 31.125 15.2344 31.125C14.9346 31.125 14.6347 31.0105 14.4059 30.7816L11.7325 28.1083C11.2748 27.6505 11.2748 26.9089 11.7325 26.4512C12.1902 25.9934 12.9319 25.9934 13.3896 26.4512L15.2344 28.296L19.0934 24.437C19.5511 23.9793 20.2927 23.9793 20.7505 24.437C21.2082 24.8948 21.2082 25.6364 20.7505 26.0941ZM20.7505 16.7191L16.063 21.4066C15.8341 21.6355 15.5342 21.75 15.2345 21.75C14.9347 21.75 14.6348 21.6355 14.4059 21.4066L11.7326 18.7333C11.2747 18.2755 11.2747 17.534 11.7325 17.0763C12.1902 16.6185 12.9319 16.6185 13.3896 17.0763L15.2344 18.921L19.0934 15.062C19.5511 14.6043 20.2927 14.6043 20.7505 15.062C21.2082 15.5198 21.2082 16.2614 20.7505 16.7191ZM20.7505 7.18789L16.063 11.8754C15.8341 12.1043 15.5342 12.2188 15.2345 12.2188C14.9347 12.2188 14.6348 12.1043 14.4059 11.8754L11.7326 9.20203C11.2747 8.7443 11.2747 8.00273 11.7325 7.545C12.1902 7.08727 12.9319 7.08727 13.3896 7.545L15.2344 9.38977L19.0934 5.53078C19.5511 5.07305 20.2927 5.07305 20.7505 5.53078C21.2082 5.98852 21.2082 6.73016 20.7505 7.18789ZM31.6406 19.4062H24.6094C23.9616 19.4062 23.4375 18.8821 23.4375 18.2344C23.4375 17.5866 23.9616 17.0625 24.6094 17.0625H31.6406C32.2884 17.0625 32.8125 17.5866 32.8125 18.2344C32.8125 18.8821 32.2884 19.4062 31.6406 19.4062ZM31.6406 9.875H24.6094C23.9616 9.875 23.4375 9.35086 23.4375 8.70312C23.4375 8.05539 23.9616 7.53125 24.6094 7.53125H31.6406C32.2884 7.53125 32.8125 8.05539 32.8125 8.70312C32.8125 9.35086 32.2884 9.875 31.6406 9.875Z" fill="#B51819"/>
</g>
<defs>
<clipPath id="clip0_0_155">
<rect width="40" height="40" fill="white" transform="translate(0 0.5)"/>
</clipPath>
</defs>
</svg>
