<svg width="34" height="36" viewBox="0 0 34 36" fill="none" xmlns="http://www.w3.org/2000/svg">
<path d="M30.6367 4.96997C28.4021 4.73206 26.2029 4.23483 24.0833 3.4883C22.1383 2.80093 20.2727 1.90692 18.5183 0.821632C18.0606 0.543856 17.5354 0.396973 17 0.396973C16.4646 0.396973 15.9394 0.543856 15.4817 0.821632L15.48 0.823298C13.726 1.90772 11.8609 2.80115 9.91667 3.4883C7.79818 4.23452 5.60007 4.73175 3.36667 4.96997C2.64923 5.04303 1.98444 5.37973 1.50103 5.91487C1.01762 6.45 0.750004 7.14549 0.75 7.86663V16.525C0.751215 19.72 1.6063 22.8566 3.22675 25.6102C4.8472 28.3638 7.17412 30.6343 9.96667 32.1866L15.5833 35.3083C16.0159 35.5516 16.5038 35.6793 17 35.6793C17.4962 35.6793 17.9841 35.5516 18.4167 35.3083L24.0333 32.1866C26.8259 30.6343 29.1528 28.3638 30.7733 25.6102C32.3937 22.8566 33.2488 19.72 33.25 16.525V7.8683C33.2509 7.1471 32.9841 6.45122 32.5013 5.91547C32.0185 5.37971 31.3541 5.04386 30.6367 4.96997ZM23.6317 14.9733L17.3817 21.64C17.0848 21.9567 16.6759 22.1449 16.2422 22.1645C15.8085 22.1841 15.3843 22.0336 15.06 21.745L11.31 18.4116C11.1381 18.2687 10.9967 18.0928 10.8943 17.8941C10.7918 17.6955 10.7303 17.4783 10.7135 17.2554C10.6967 17.0325 10.7249 16.8085 10.7964 16.5968C10.8679 16.385 10.9813 16.1898 11.1298 16.0227C11.2783 15.8557 11.4588 15.7202 11.6608 15.6243C11.8627 15.5285 12.0818 15.4742 12.3051 15.4648C12.5284 15.4554 12.7514 15.491 12.9606 15.5694C13.1699 15.6479 13.3613 15.7677 13.5233 15.9216L16.0617 18.1766L21.2017 12.6933C21.3576 12.5274 21.5459 12.3951 21.7548 12.3045C21.9637 12.214 22.189 12.167 22.4167 12.1666C22.7418 12.1665 23.0599 12.2614 23.3318 12.4398C23.6036 12.6181 23.8174 12.8721 23.9467 13.1704C24.076 13.4687 24.1153 13.7984 24.0596 14.1187C24.0039 14.4391 23.8541 14.7361 23.6317 14.9733Z" fill="#B51819"/>
</svg>
