<svg width="40" height="40" viewBox="0 0 40 40" fill="none" xmlns="http://www.w3.org/2000/svg">
<path d="M39.7316 21.4611C39.7934 22.9379 39.2669 24.3789 38.2676 25.468C37.2683 26.5571 35.8778 27.2053 34.4011 27.2705C34.3148 27.2745 34.2286 27.2765 34.1425 27.2765C33.7502 27.2762 33.359 27.2338 32.9757 27.1498C31.8385 28.9057 30.3473 30.4048 28.5976 31.5514C26.8479 32.698 24.8781 33.4667 22.8142 33.8084C22.5701 34.5256 22.0831 35.1349 21.4374 35.5311C20.7917 35.9272 20.0279 36.0853 19.278 35.9781C18.5281 35.8708 17.8392 35.5049 17.3305 34.9436C16.8217 34.3823 16.5251 33.6609 16.4918 32.9041C16.4585 32.1472 16.6907 31.4026 17.1483 30.7988C17.6058 30.195 18.2599 29.7701 18.9975 29.5974C19.7351 29.4248 20.5098 29.5152 21.1878 29.8532C21.8658 30.1912 22.4044 30.7554 22.7105 31.4484C25.6161 30.911 28.241 29.371 30.1277 27.0969C32.0144 24.8228 33.0433 21.9588 33.0351 19.0039C33.0351 12.023 27.3558 6.34375 20.3749 6.34375C13.3941 6.34375 7.71478 12.023 7.71478 19.0039C7.7144 21.1625 8.26608 23.2853 9.31736 25.1706C9.35299 25.2328 9.37974 25.2997 9.39682 25.3694C9.49836 25.6516 9.4875 25.9621 9.3665 26.2365C9.24549 26.511 9.0236 26.7284 8.74674 26.8438C8.06881 27.1291 7.34069 27.2761 6.60517 27.2759C6.51861 27.2759 6.43187 27.2739 6.34494 27.2699C4.86891 27.2039 3.47928 26.5553 2.48076 25.4663C1.48223 24.3773 0.956305 22.9367 1.0183 21.4605C1.04322 20.8719 1.02931 20.3466 1.01572 19.8387C1.00306 19.3605 0.989862 18.866 1.01158 18.35C1.0764 16.9086 1.69642 15.5483 2.74178 14.5538C3.78714 13.5593 5.17675 13.0079 6.61955 13.0151C8.93642 7.71414 14.2296 4 20.3749 4C26.5203 4 31.8135 7.71414 34.1304 13.0152C35.5734 13.0069 36.9634 13.5579 38.009 14.5523C39.0545 15.5468 39.6743 16.9076 39.7382 18.3491C39.76 18.8659 39.7469 19.3604 39.7341 19.8386C39.7206 20.3466 39.7067 20.872 39.7316 21.4611ZM30.2035 19.0039C30.2029 20.5096 29.8565 21.9951 29.191 23.3458C28.5255 24.6965 27.5587 25.8763 26.3651 26.7942C25.1715 27.7122 23.783 28.3437 22.3067 28.6401C20.8305 28.9365 19.3058 28.8899 17.8504 28.5039L13.8722 30.8013C13.6715 30.9172 13.4409 30.971 13.2096 30.9559C12.9783 30.9407 12.7567 30.8573 12.5728 30.7162C12.3889 30.5751 12.251 30.3827 12.1765 30.1632C12.102 29.9437 12.0942 29.707 12.1542 29.4831L13.171 25.6903C11.4872 23.8704 10.5504 21.4832 10.5468 19.0039C10.5468 13.583 14.9555 9.17312 20.3749 9.17312C25.7944 9.17312 30.2035 13.583 30.2035 19.0039ZM17.6425 19.0039C17.6425 18.6931 17.5191 18.395 17.2993 18.1753C17.0795 17.9555 16.7814 17.832 16.4706 17.832H16.4687C16.237 17.8325 16.0107 17.9016 15.8182 18.0306C15.6258 18.1596 15.4759 18.3428 15.3876 18.557C15.2992 18.7711 15.2763 19.0067 15.3218 19.2339C15.3673 19.461 15.479 19.6696 15.643 19.8333C15.807 19.997 16.0158 20.1084 16.2431 20.1534C16.4703 20.1985 16.7058 20.1751 16.9198 20.0864C17.1338 19.9976 17.3167 19.8474 17.4454 19.6547C17.5741 19.4621 17.6428 19.2356 17.6428 19.0039H17.6425ZM21.547 19.0039C21.547 18.9655 21.5449 18.9272 21.5408 18.8891C21.5371 18.8508 21.5314 18.8127 21.5237 18.775C21.5167 18.7375 21.5073 18.7004 21.4955 18.6641C21.4846 18.6273 21.4713 18.5914 21.4573 18.5555C21.4432 18.5195 21.426 18.4859 21.4081 18.4523C21.3902 18.4186 21.3707 18.3857 21.3495 18.3539C21.3281 18.3218 21.3051 18.2907 21.2806 18.2609C21.2566 18.2311 21.2308 18.2026 21.2034 18.1758C21.1768 18.1484 21.1479 18.1227 21.1182 18.0977C21.0885 18.0742 21.0572 18.0508 21.0252 18.0297C20.9934 18.0085 20.9606 17.9889 20.9268 17.9711C20.8931 17.9531 20.8581 17.9367 20.8228 17.9219C20.7877 17.9071 20.7517 17.8944 20.7151 17.8836C20.642 17.8601 20.5666 17.8449 20.4901 17.8383C20.3753 17.8272 20.2596 17.8328 20.1463 17.8547C20.1087 17.8624 20.0714 17.872 20.0347 17.8836C19.9981 17.8943 19.9621 17.9071 19.9269 17.9219C19.8917 17.9367 19.8566 17.9531 19.823 17.9711C19.7894 17.9891 19.7566 18.0086 19.7245 18.0297C19.6603 18.0722 19.6007 18.1212 19.5464 18.1758C19.519 18.2027 19.4932 18.2311 19.469 18.2609C19.4448 18.2908 19.4222 18.3218 19.4011 18.3539C19.3796 18.3857 19.3598 18.4185 19.3417 18.4523C19.3237 18.4858 19.3075 18.5202 19.2932 18.5555C19.2784 18.591 19.2654 18.6272 19.2542 18.6641C19.2433 18.7 19.2339 18.7375 19.2261 18.775C19.2184 18.8127 19.2126 18.8508 19.2088 18.8891C19.205 18.9273 19.2034 18.9656 19.2034 19.0039C19.2034 19.0422 19.205 19.0813 19.2088 19.1195C19.2127 19.1576 19.2185 19.1954 19.2261 19.2328C19.2339 19.2703 19.2433 19.3078 19.2542 19.3445C19.2654 19.3811 19.2784 19.4171 19.2932 19.4523C19.3075 19.4878 19.3237 19.5225 19.3417 19.5562C19.3596 19.5898 19.38 19.6227 19.4011 19.6547C19.4222 19.6866 19.4448 19.7173 19.469 19.7469C19.4933 19.7768 19.5192 19.8055 19.5464 19.8328C19.5738 19.8594 19.6019 19.8859 19.6324 19.9102C19.6617 19.9346 19.6925 19.9572 19.7245 19.9781C19.7566 19.9992 19.7893 20.0195 19.823 20.0375C19.8908 20.0729 19.9617 20.1021 20.0347 20.125C20.0713 20.1359 20.1088 20.1453 20.1463 20.1531C20.2217 20.1685 20.2984 20.1761 20.3753 20.1758C20.6857 20.175 20.9833 20.0517 21.2034 19.8328C21.2574 19.778 21.3063 19.7184 21.3495 19.6547C21.3706 19.6227 21.3901 19.5898 21.4081 19.5562C21.426 19.5227 21.4424 19.4875 21.4573 19.4523C21.4721 19.4172 21.4846 19.3805 21.4955 19.3445C21.5072 19.3079 21.5166 19.2706 21.5237 19.2328C21.5313 19.1954 21.537 19.1576 21.5408 19.1195C21.5448 19.0811 21.5468 19.0424 21.5468 19.0037L21.547 19.0039ZM25.4533 19.0039C25.4533 18.6931 25.3298 18.395 25.1101 18.1753C24.8903 17.9555 24.5922 17.832 24.2814 17.832H24.2792C24.0475 17.8325 23.8211 17.9016 23.6287 18.0306C23.4363 18.1597 23.2865 18.3428 23.1981 18.557C23.1098 18.7712 23.0869 19.0067 23.1323 19.2339C23.1778 19.4611 23.2896 19.6697 23.4536 19.8333C23.6176 19.997 23.8264 20.1084 24.0536 20.1534C24.2809 20.1985 24.5164 20.1751 24.7304 20.0864C24.9444 19.9976 25.1273 19.8474 25.256 19.6547C25.3846 19.4621 25.4533 19.2356 25.4533 19.0039Z" fill="#B51819"/>
</svg>
