<svg width="38" height="38" viewBox="0 0 38 38" fill="none" xmlns="http://www.w3.org/2000/svg">
<path d="M35.625 11.875V8.3125C35.625 7.36767 35.2497 6.46153 34.5816 5.79343C33.9135 5.12533 33.0073 4.75 32.0625 4.75H27.3125V3.5625C27.3125 3.24756 27.1874 2.94551 26.9647 2.72281C26.742 2.50011 26.4399 2.375 26.125 2.375C25.8101 2.375 25.508 2.50011 25.2853 2.72281C25.0626 2.94551 24.9375 3.24756 24.9375 3.5625V4.75H13.0625V3.5625C13.0625 3.24756 12.9374 2.94551 12.7147 2.72281C12.492 2.50011 12.1899 2.375 11.875 2.375C11.5601 2.375 11.258 2.50011 11.0353 2.72281C10.8126 2.94551 10.6875 3.24756 10.6875 3.5625V4.75H5.9375C4.99267 4.75 4.08653 5.12533 3.41843 5.79343C2.75033 6.46153 2.375 7.36767 2.375 8.3125V11.875H35.625ZM2.375 14.25V32.0625C2.375 33.0073 2.75033 33.9135 3.41843 34.5816C4.08653 35.2497 4.99267 35.625 5.9375 35.625H32.0625C33.0073 35.625 33.9135 35.2497 34.5816 34.5816C35.2497 33.9135 35.625 33.0073 35.625 32.0625V14.25H2.375ZM25.7094 21.0888L17.3969 28.2138C17.1697 28.4081 16.8775 28.5095 16.5788 28.4978C16.2801 28.4862 15.9968 28.3623 15.7854 28.1509L12.2229 24.5884C12.0066 24.3644 11.8869 24.0644 11.8896 23.7531C11.8923 23.4417 12.0172 23.1439 12.2374 22.9237C12.4576 22.7035 12.7554 22.5787 13.0668 22.5759C13.3781 22.5732 13.6781 22.6929 13.9021 22.9093L16.6879 25.6951L24.1692 19.2826C24.2869 19.1765 24.4247 19.095 24.5745 19.043C24.7242 18.991 24.8828 18.9694 25.041 18.9797C25.1992 18.9899 25.3537 19.0317 25.4955 19.1027C25.6372 19.1736 25.7634 19.2721 25.8664 19.3926C25.9695 19.513 26.0474 19.6528 26.0956 19.8039C26.1438 19.9549 26.1612 20.114 26.1469 20.2719C26.1326 20.4297 26.0868 20.5831 26.0123 20.723C25.9378 20.8629 25.836 20.9865 25.7129 21.0864L25.7094 21.0888Z" fill="#B51819"/>
</svg>
